HIERARCHY
ROOT Hips
{
	OFFSET 0.000000 0.000000 0.000000
	CHANNELS 6 Xposition Yposition Zposition Zrotation Xrotation Yrotation
	JOINT RightUpLeg
	{
		OFFSET -10.032200 0.000000 0.000000
		CHANNELS 3 Zrotation Xrotation Yrotation
		JOINT RightLeg
		{
			OFFSET 0.000000 -40.977000 0.000000
			CHANNELS 3 Zrotation Xrotation Yrotation
			JOINT RightFoot
			{
				OFFSET 0.000000 -38.933200 0.000000
				CHANNELS 3 Zrotation Xrotation Yrotation
				JOINT RightToe
				{
					OFFSET 0.000000 -1.977400 9.184000
					CHANNELS 3 Zrotation Xrotation Yrotation
					JOINT RightToeEnd
					{
						OFFSET 0.000000 2.335600 6.099100
						CHANNELS 3 Zrotation Xrotation Yrotation
						End Site
						{
						    OFFSET 0.000000 1.788000 4.669400
						}
					}
				}
			}
		}
	}
	JOINT LeftUpLeg
	{
		OFFSET 10.032200 0.000000 0.000000
		CHANNELS 3 Zrotation Xrotation Yrotation
		JOINT LeftLeg
		{
			OFFSET 0.000000 -40.977000 0.000000
			CHANNELS 3 Zrotation Xrotation Yrotation
			JOINT LeftFoot
			{
				OFFSET 0.000000 -38.933200 0.000000
				CHANNELS 3 Zrotation Xrotation Yrotation
				JOINT LeftToe
				{
					OFFSET 0.000000 -1.977400 9.184000
					CHANNELS 3 Zrotation Xrotation Yrotation
					JOINT LeftToeEnd
					{
						OFFSET 0.000000 2.335600 6.099100
						CHANNELS 3 Zrotation Xrotation Yrotation
						End Site
						{
						    OFFSET 0.000000 1.788000 4.669400
						}
					}
				}
			}
		}
	}
	JOINT Spine
	{
		OFFSET 0.000000 16.960900 0.000000
		CHANNELS 3 Zrotation Xrotation Yrotation
		JOINT Spine1
		{
			OFFSET 0.000000 13.413900 0.000000
			CHANNELS 3 Zrotation Xrotation Yrotation
			JOINT Spine2
			{
				OFFSET 0.000000 10.384400 0.000000
				CHANNELS 3 Zrotation Xrotation Yrotation
				JOINT LeftShoulder
				{
					OFFSET 2.000000 10.384400 0.000000
					CHANNELS 3 Zrotation Xrotation Yrotation
					JOINT LeftArm
					{
						OFFSET 15.649100 0.000000 0.000000
						CHANNELS 3 Zrotation Xrotation Yrotation
						JOINT LeftForeArm
						{
							OFFSET 0.000000 -26.641600 0.000000
							CHANNELS 3 Zrotation Xrotation Yrotation
							JOINT LeftHand
							{
								OFFSET 0.000000 -23.740600 0.000000
								CHANNELS 3 Zrotation Xrotation Yrotation
								JOINT LeftFinger0
								{
									OFFSET 0.000000 -7.620900 0.000000
									CHANNELS 3 Zrotation Xrotation Yrotation
									End Site
									{
									    OFFSET 0.000000 -5.000000 0.000000
									}
								}
							}
						}
					}
				}
				JOINT RightShoulder
				{
					OFFSET -2.000000 10.384400 0.000000
					CHANNELS 3 Zrotation Xrotation Yrotation
					JOINT RightArm
					{
						OFFSET -15.649100 0.000000 0.000000
						CHANNELS 3 Zrotation Xrotation Yrotation
						JOINT RightForeArm
						{
							OFFSET 0.000000 -26.641600 0.000000
							CHANNELS 3 Zrotation Xrotation Yrotation
							JOINT RightHand
							{
								OFFSET 0.000000 -23.740600 0.000000
								CHANNELS 3 Zrotation Xrotation Yrotation
								JOINT RightFinger0
								{
									OFFSET 0.000000 -7.620900 0.000000
									CHANNELS 3 Zrotation Xrotation Yrotation
									End Site
									{
									    OFFSET 0.000000 -5.000000 0.000000
									}
								}
							}
						}
					}
				}
				JOINT Neck
				{
					OFFSET 0.000000 10.384400 0.000000
					CHANNELS 3 Zrotation Xrotation Yrotation
					JOINT Head
					{
						OFFSET 0.000000 10.146900 0.000000
						CHANNELS 3 Zrotation Xrotation Yrotation
						JOINT HeadTip
						{
							OFFSET 0.000000 10.000000 0.000000
							CHANNELS 3 Zrotation Xrotation Yrotation
							End Site
							{
							    OFFSET 0.000000 5.000000 0.000000
							}
						}
					}
				}
			}
		}
	}
}
MOTION
Frames:	13
Frame Time:	0.033332
148.381100 77.904000 -48.544300 -8.488150 9.999105 15.030120 14.691102 -38.094876 -26.583179 -0.000000 33.804505 -0.000000 -14.150396 9.261961 -1.779344 0.000000 -5.071405 -0.000000 0.000000 0.000000 0.000000 15.144907 -24.186581 48.979467 -0.000000 73.797546 -0.000000 -7.709218 12.943098 3.906030 0.000000 -6.089167 -0.000000 0.000000 0.000000 -0.000000 -4.178976 26.014306 -17.878114 -0.000000 9.827283 0.000000 -0.000000 0.000000 -0.000000 5.441578 -0.000000 0.225415 33.500204 -29.856619 -9.120133 -180.000037 -86.498102 -180.000037 26.798085 -10.046280 -36.784032 -0.000000 0.000000 0.000000 2.799111 -0.000000 -5.939044 -25.615339 20.935756 8.063378 -179.962907 -89.765406 -179.962755 -14.648583 13.327628 54.361689 -0.000000 -0.000000 -0.000000 -0.000000 0.000000 -0.000000 28.353578 1.812779 -49.205484 -0.000000 -0.000000 -0.000000 
149.542400 78.201000 -48.410200 -8.541116 10.574843 12.290718 15.035446 -38.496947 -24.076660 0.000000 34.927768 -0.000000 -12.729487 10.064232 -0.185153 0.000000 -4.666069 0.000000 0.000000 -0.000000 0.000000 21.443122 -29.053074 45.945554 0.000000 78.940406 -0.000000 -6.814320 11.017204 3.027797 -0.000000 -7.292942 -0.000000 -0.000000 -0.000000 -0.000000 -7.317013 27.994408 -15.082996 -0.000000 9.482552 -0.000000 0.000000 0.000000 -0.000000 5.023205 -0.000000 -0.491112 33.483223 -28.672959 -3.580300 0.000000 -89.732018 -0.000000 27.626875 -10.164982 -36.904100 -0.000000 0.000000 0.000000 3.173035 -0.000000 -4.064484 -26.430823 14.982142 9.835315 -179.986188 -89.371072 -179.986035 -15.790255 12.529882 54.914906 0.000000 0.000000 -0.000000 0.000000 0.000000 -0.000000 29.483231 0.510292 -48.018489 -0.000000 -0.000000 -0.000000 
150.605700 79.327300 -48.451500 -7.465936 12.113528 10.937563 14.513798 -37.454774 -22.920700 0.000000 30.951565 -0.000000 -12.466299 10.698426 0.918239 0.000000 -3.238919 -0.000000 0.000000 -0.000000 -0.000000 24.850321 -33.879226 42.987352 0.000000 77.378710 -0.000000 -5.298992 10.258496 5.372915 -0.000000 -8.181254 -0.000000 -0.000000 0.000000 -0.000000 -11.620536 29.148273 -12.969463 -0.000000 9.304766 -0.000000 -0.000000 0.000000 -0.000000 5.846504 -0.000000 -1.964840 32.233041 -26.997895 2.188442 0.000000 -87.390376 0.000000 29.040120 -9.574564 -35.129306 0.000000 0.000000 -0.000000 3.112838 0.000000 -3.252431 -27.654469 12.195216 12.462714 -179.998064 -85.593778 -179.997906 -15.023973 12.962694 56.911368 0.000000 0.000000 -0.000000 -0.000000 0.000000 -0.000000 30.742552 -0.295691 -47.548398 -0.000000 -0.000000 -0.000000 
151.769500 81.080900 -48.604800 -6.365552 13.907421 10.145485 13.121708 -36.589760 -22.870630 -0.000000 26.280111 -0.000000 -11.026725 13.854897 3.369910 -0.000000 -1.320173 -0.000000 -0.000000 0.000000 -0.000000 26.839347 -37.473582 41.531388 -0.000000 70.554817 0.000000 -4.231573 9.360440 9.696194 -0.000000 -8.452962 0.000000 -0.000000 0.000000 0.000000 -14.970761 30.215709 -10.915851 -0.000000 9.270334 0.000000 -0.000000 0.000000 -0.000000 5.726461 0.000000 -2.525638 31.695244 -27.133131 5.855414 -0.000000 -86.819222 -0.000000 30.496679 -9.381650 -33.340003 0.000000 0.000000 -0.000000 3.121639 0.000000 -3.469806 -30.149907 12.303657 13.721344 -179.999276 -78.713850 -179.999109 -14.260196 13.021144 57.789170 -0.000000 0.000000 -0.000000 -0.000000 0.000000 -0.000000 30.837619 -2.318070 -47.128142 -0.000000 0.000000 -0.000000 
153.141300 82.871400 -48.624000 -5.155137 15.232509 9.606087 10.897854 -35.461721 -23.513908 -0.000000 22.103287 -0.000000 -9.346484 17.441465 6.545095 -0.000000 1.003386 0.000000 -0.000000 0.000000 -0.000000 26.889655 -39.291736 40.318713 0.000000 60.828257 0.000000 -4.258506 10.212401 10.903402 -0.000000 -7.289557 -0.000000 -0.000000 0.000000 0.000000 -17.324479 31.277064 -9.492590 0.000000 9.382362 0.000000 -0.000000 0.000000 -0.000000 5.312033 0.000000 -2.329212 30.939747 -27.653184 7.857999 -0.000000 -87.316952 0.000000 30.198190 -9.931174 -34.204470 0.000000 0.000000 -0.000000 3.217406 -0.000000 -3.913123 -33.598173 13.691942 13.471675 -179.999583 -71.511366 -179.999406 -14.347971 12.798855 56.153017 0.000000 -0.000000 -0.000000 -0.000000 0.000000 -0.000000 29.464364 -3.803275 -46.797994 -0.000000 0.000000 -0.000000 
154.673700 84.418200 -48.545100 -4.490964 16.086963 8.787008 8.954100 -34.972860 -24.468577 -0.000000 19.873234 -0.000000 -7.739169 21.820909 9.094917 -0.000000 2.812589 -0.000000 -0.000000 0.000000 -0.000000 26.519590 -39.500306 40.170403 -0.000000 49.851123 0.000000 -5.751094 14.423118 5.288192 0.000000 -5.918097 -0.000000 -0.000000 -0.000000 -0.000000 -18.419113 31.750335 -8.322371 -0.000000 9.470326 -0.000000 0.000000 -0.000000 -0.000000 5.035509 -0.000000 -1.930691 29.071910 -27.692555 8.936961 -0.000000 -87.680475 -0.000000 29.771980 -9.859832 -34.417694 0.000000 0.000000 -0.000000 3.152501 -0.000000 -4.065249 -37.139518 14.741706 12.049887 -179.999694 -66.152549 -179.999509 -14.415394 12.782094 53.352436 0.000000 -0.000000 -0.000000 0.000000 -0.000000 -0.000000 27.615070 -3.677137 -46.663514 0.000000 0.000000 -0.000000 
156.392200 85.491400 -48.218000 -4.313332 15.908542 7.269355 7.853444 -34.245844 -26.174519 0.000000 19.375721 -0.000000 -7.725570 25.525446 11.287843 0.000000 3.273262 -0.000000 0.000000 -0.000000 -0.000000 26.332535 -37.755659 41.992876 -0.000000 39.091226 0.000000 -8.576692 22.549644 -4.118259 0.000000 -2.981461 -0.000000 0.000000 0.000000 -0.000000 -18.907545 32.010032 -7.129949 0.000000 9.638686 0.000000 0.000000 -0.000000 -0.000000 4.906019 0.000000 -1.508792 26.527499 -26.518151 9.893956 -0.000000 -88.124410 -0.000000 29.868414 -9.569158 -33.628241 0.000000 0.000000 -0.000000 2.607773 0.000000 -3.909260 -39.912629 13.941116 10.418359 -179.999730 -63.665021 -179.999543 -14.608115 12.511116 51.298907 -0.000000 0.000000 0.000000 0.000000 -0.000000 -0.000000 26.204007 -2.365003 -46.439733 -0.000000 0.000000 -0.000000 
158.237400 86.037600 -47.683400 -4.445490 15.064823 5.785464 7.147752 -33.290507 -26.841994 0.000000 19.949115 -0.000000 -7.996424 27.398954 12.301420 0.000000 3.006605 -0.000000 0.000000 0.000000 0.000000 25.808848 -35.380539 45.086520 0.000000 30.337572 -0.000000 -9.488723 30.158912 -9.596058 -0.000000 0.946018 -0.000000 -0.000000 -0.000000 -0.000000 -18.671845 32.035255 -6.467203 0.000000 9.850738 0.000000 0.000000 -0.000000 -0.000000 4.498150 0.000000 -1.166678 24.299257 -24.678159 10.647003 -0.000000 -88.135734 -0.000000 30.230663 -9.631378 -32.892146 -0.000000 0.000000 -0.000000 1.904493 0.000000 -3.767790 -41.684104 11.437797 8.531861 -179.999732 -63.508678 -179.999545 -13.855504 12.322610 49.515703 -0.000000 0.000000 0.000000 0.000000 -0.000000 -0.000000 25.038169 -0.588258 -46.218533 -0.000000 -0.000000 -0.000000 
160.127100 86.124200 -47.078200 -4.936016 14.085052 4.387107 6.634541 -32.714332 -26.806145 0.000000 21.665600 -0.000000 -7.829415 28.012169 12.412987 0.000000 1.969602 0.000000 0.000000 -0.000000 -0.000000 25.424567 -33.348743 48.803798 0.000000 25.226675 0.000000 -8.147881 34.255761 -11.259634 -0.000000 3.808578 -0.000000 0.000000 0.000000 -0.000000 -17.610132 31.691146 -6.068974 0.000000 10.010869 -0.000000 0.000000 -0.000000 -0.000000 3.645778 -0.000000 -0.538104 22.789541 -23.158665 10.520185 -0.000000 -87.229826 0.000000 29.821147 -10.026430 -33.349886 -0.000000 0.000000 -0.000000 1.423817 -0.000000 -3.392567 -42.577017 8.651584 5.746193 -179.999723 -64.187257 -179.999536 -12.453598 12.273155 48.865730 -0.000000 0.000000 -0.000000 0.000000 -0.000000 -0.000000 23.706654 0.620322 -45.962443 -0.000000 -0.000000 -0.000000 
162.119500 85.862900 -46.492900 -5.318466 13.106271 2.655687 5.572280 -32.833466 -27.250022 0.000000 24.988792 -0.000000 -7.530261 27.876394 12.651514 0.000000 0.294542 -0.000000 0.000000 0.000000 -0.000000 25.098609 -31.745378 50.100101 -0.000000 24.935680 -0.000000 -6.743863 32.539352 -10.010301 -0.000000 4.276625 0.000000 0.000000 -0.000000 -0.000000 -16.599532 31.293220 -5.523311 0.000000 9.954303 0.000000 -0.000000 -0.000000 -0.000000 2.839480 -0.000000 0.167563 21.776457 -21.685172 9.900462 0.000000 -85.927472 -0.000000 29.111892 -10.116684 -34.033472 -0.000000 -0.000000 -0.000000 1.426359 -0.000000 -2.809837 -42.950665 5.873414 2.449645 -179.999712 -64.940177 -179.999526 -12.091737 12.110653 48.654984 -0.000000 0.000000 0.000000 -0.000000 -0.000000 -0.000000 22.379392 1.048976 -45.476530 -0.000000 -0.000000 -0.000000 
164.207800 85.237800 -45.986800 -5.373982 12.139827 0.423918 3.625941 -33.854762 -27.950308 -0.000000 30.065946 -0.000000 -6.462139 27.321155 13.049138 0.000000 -1.108735 -0.000000 0.000000 -0.000000 -0.000000 24.559264 -30.644236 47.932505 -0.000000 27.715035 0.000000 -6.267461 26.779863 -8.046218 -0.000000 0.268862 -0.000000 0.000000 0.000000 -0.000000 -16.214045 30.906762 -4.688947 0.000000 9.690697 -0.000000 0.000000 0.000000 -0.000000 2.561029 0.000000 0.647398 20.976591 -19.857283 9.087647 0.000000 -84.463120 -0.000000 29.253485 -10.121369 -33.938405 0.000000 0.000000 0.000000 1.470837 -0.000000 -2.064006 -42.632720 3.193175 -0.796385 -179.999701 -65.677202 -179.999516 -12.556509 11.721129 48.151944 0.000000 -0.000000 -0.000000 0.000000 0.000000 -0.000000 21.304714 1.236774 -45.052745 -0.000000 0.000000 -0.000000 
166.172300 84.272900 -45.494300 -5.279176 11.222212 -1.811601 1.292841 -35.318358 -29.012072 -0.000000 35.874029 -0.000000 -4.963366 26.427806 13.073734 -0.000000 -2.343433 -0.000000 0.000000 0.000000 -0.000000 24.152223 -30.061756 45.403034 -0.000000 30.497207 -0.000000 -8.671033 21.260869 -4.441367 -0.000000 0.544420 -0.000000 0.000000 -0.000000 0.000000 -16.228373 30.372836 -3.498557 0.000000 9.411793 -0.000000 0.000000 0.000000 -0.000000 2.537073 0.000000 0.611776 20.855821 -18.074869 8.160340 0.000000 -82.552935 0.000000 29.262622 -10.223189 -34.137605 0.000000 0.000000 0.000000 1.748612 0.000000 -1.477904 -41.924952 1.059553 -3.867550 -179.999700 -65.771588 -179.999515 -12.594462 11.777887 48.399815 -0.000000 0.000000 0.000000 0.000000 0.000000 -0.000000 20.753611 1.484869 -45.329027 -0.000000 0.000000 -0.000000 
167.836100 83.248700 -45.079600 -5.130202 10.475923 -3.382958 -1.091590 -36.619667 -30.466349 0.000000 40.839390 -0.000000 -4.194938 25.693209 13.178739 -0.000000 -3.933167 -0.000000 0.000000 0.000000 -0.000000 24.568377 -30.402034 45.548947 -0.000000 34.933836 0.000000 -8.454111 16.922373 -2.663124 -0.000000 -0.531413 -0.000000 -0.000000 -0.000000 -0.000000 -16.250693 29.815623 -2.516059 -0.000000 9.225477 -0.000000 -0.000000 0.000000 -0.000000 2.402897 -0.000000 0.384565 21.804026 -16.880830 6.970889 0.000000 -79.949662 -0.000000 29.075511 -10.428295 -34.858188 -0.000000 0.000000 0.000000 2.656492 0.000000 -0.886076 -41.214848 -0.216780 -6.520113 -179.999710 -65.109238 -179.999524 -12.798743 11.646957 48.463398 0.000000 -0.000000 -0.000000 -0.000000 0.000000 -0.000000 20.477762 1.805524 -46.347053 -0.000000 -0.000000 0.000000 
